<?xml version="1.0" standalone="yes"?>

<svg version="1.1" viewBox="0.0 0.0 380.3517060367454 100.0" fill="none" stroke="none" stroke-linecap="square" stroke-miterlimit="10" xmlns="http://www.w3.org/2000/svg" xmlns:xlink="http://www.w3.org/1999/xlink"><clipPath id="p.0"><path d="m0 0l380.3517 0l0 100.0l-380.3517 0l0 -100.0z" clip-rule="nonzero"></path></clipPath><g clip-path="url(#p.0)"><path fill="#ffffff" d="m0 0l380.3517 0l0 100.0l-380.3517 0z" fill-rule="evenodd"></path><path fill="#000000" fill-opacity="0.0" d="m12.925058 17.66929l359.62207 0l0 80.66142l-359.62207 0z" fill-rule="evenodd"></path><path fill="#434343" d="m46.36256 44.866165l-1.34375 0q-0.1875 -0.703125 -0.640625 -1.65625q-0.453125 -0.96875 -1.03125 -1.828125q-0.578125 -0.90625 -1.28125 -1.578125q-0.6875 -0.671875 -1.328125 -0.765625q-0.609375 -0.078125 -1.53125 -0.109375q-0.90625 -0.046875 -1.6875 -0.046875l-1.140625 0l0 22.15625q0 0.65625 0.265625 1.1875q0.28125 0.53125 0.96875 0.828125q0.34375 0.140625 1.46875 0.375q1.125 0.234375 1.75 0.25l0 1.390625l-13.078127 0l0 -1.390625q0.546875 -0.03125 1.65625 -0.140625q1.125 -0.125 1.5625 -0.3125q0.640625 -0.25 0.9375 -0.71875q0.3125019 -0.484375 0.3125019 -1.28125l0 -22.34375l-1.1406269 0q-0.59375 0 -1.5 0.03125q-0.890625 0.015625 -1.71875 0.125q-0.640625 0.078125 -1.34375 0.765625q-0.6875 0.6875 -1.265625 1.578125q-0.59375 0.875 -1.046875 1.859375q-0.4375 0.984375 -0.625 1.625l-1.359375 0l0 -7.515625l24.140627 0l0 7.515625zm22.636715 20.203125l-9.453121 0l0 -1.296875q0.453125 -0.03125 1.0 -0.0625q0.546875 -0.046875 0.890625 -0.171875q0.546875 -0.171875 0.8125 -0.609375q0.265625 -0.4375 0.265625 -1.140625l0 -9.90625q0 -2.046875 -0.96875 -3.15625q-0.96875 -1.125 -2.359375 -1.125q-1.015625 0 -1.890625 0.328125q-0.859375 0.328125 -1.546875 0.796875q-0.65625 0.484375 -1.015625 0.96875q-0.34375 0.484375 -0.546875 0.828125l0 11.0625q0 0.671875 0.265625 1.109375q0.265625 0.421875 0.8125 0.65625q0.4375 0.1875 0.890625 0.296875q0.453125 0.09375 1.0 0.125l0 1.296875l-9.453125 0l0 -1.296875q0.453125 -0.03125 0.9375 -0.078125q0.5 -0.046875 0.828125 -0.15625q0.546875 -0.171875 0.8125 -0.609375q0.28125 -0.4375 0.28125 -1.140625l0 -22.421875q0 -0.671875 -0.3125 -1.328125q-0.296875 -0.671875 -0.78125 -1.0q-0.359375 -0.25 -1.25 -0.359375q-0.875 -0.109375 -1.421875 -0.140625l0 -1.25l7.125 -0.453125l0.265625 0.296875l0 13.4375l0.078125 0q0.65625 -0.65625 1.171875 -1.140625q0.53125 -0.5 1.390625 -1.046875q0.75 -0.46875 1.75 -0.78125q1.0 -0.3125 2.25 -0.3125q2.578125 0 3.9687462 1.625q1.390625 1.625 1.390625 4.703125l0 10.015625q0 0.6875 0.234375 1.109375q0.25 0.40625 0.8125 0.640625q0.453125 0.1875 0.8125 0.28125q0.359375 0.078125 0.953125 0.109375l0 1.296875zm19.46875 -4.53125q-1.203125 2.296875 -3.234375 3.671875q-2.03125 1.375 -4.671875 1.375q-2.328125 0 -4.078125 -0.828125q-1.75 -0.828125 -2.875 -2.234375q-1.140625 -1.40625 -1.703125 -3.28125q-0.546875 -1.875 -0.546875 -3.953125q0 -1.875 0.59375 -3.6875q0.59375 -1.8125 1.75 -3.25q1.109375 -1.390625 2.765625 -2.234375q1.65625 -0.859375 3.703125 -0.859375q2.109375 0 3.609375 0.671875q1.5 0.65625 2.4375 1.8125q0.90625 1.09375 1.34375 2.578125q0.4375 1.484375 0.4375 3.21875l0 1.296875l-12.75 0q0 1.890625 0.359375 3.4375q0.359375 1.546875 1.140625 2.71875q0.765625 1.125 1.984375 1.78125q1.234375 0.65625 2.9375 0.65625q1.734375 0 3.0 -0.8125q1.265625 -0.8125 2.4375 -2.921875l1.359375 0.84375zm-4.3125 -7.34375q0 -1.09375 -0.1875 -2.34375q-0.1875 -1.25 -0.59375 -2.09375q-0.453125 -0.890625 -1.234375 -1.453125q-0.78125 -0.578125 -2.015625 -0.578125q-2.046875 0 -3.40625 1.71875q-1.359375 1.703125 -1.46875 4.75l8.90625 0zm36.34375 -1.03125q1.21875 0.8125 2.015625 2.140625q0.796875 1.328125 0.796875 3.21875q0 1.9375 -0.84375 3.375q-0.828125 1.421875 -2.1875 2.328125q-1.296875 0.90625 -2.953125 1.375q-1.65625 0.46875 -3.40625 0.46875l-13.125 0l0 -1.390625q0.46875 -0.03125 1.359375 -0.15625q0.90625 -0.140625 1.296875 -0.3125q0.609375 -0.265625 0.859375 -0.71875q0.25 -0.46875 0.25 -1.1875l0 -19.921875q0 -0.671875 -0.234375 -1.171875q-0.21875 -0.515625 -0.875 -0.828125q-0.59375 -0.296875 -1.3125 -0.453125q-0.71875 -0.15625 -1.203125 -0.1875l0 -1.390625l12.78125 0q1.484375 0 2.84375 0.296875q1.359375 0.296875 2.59375 1.03125q1.15625 0.6875 1.890625 1.859375q0.75 1.171875 0.75 2.84375q0 1.46875 -0.53125 2.609375q-0.53125 1.140625 -1.484375 1.96875q-0.90625 0.78125 -2.0625 1.328125q-1.15625 0.53125 -2.515625 0.8125l0 0.1875q1.203125 0.125 2.671875 0.59375q1.46875 0.453125 2.625 1.28125zm-4.703125 -4.1875q0.71875 -0.84375 1.0 -1.828125q0.28125 -1.0 0.28125 -2.375q0 -2.28125 -1.25 -3.578125q-1.25 -1.296875 -3.9375 -1.296875q-0.625 0 -1.578125 0.03125q-0.9375 0.03125 -1.59375 0.046875l0 10.640625l2.484375 0q1.609375 0 2.75 -0.40625q1.140625 -0.40625 1.84375 -1.234375zm2.6875 8.84375q0 -2.453125 -1.65625 -4.03125q-1.640625 -1.59375 -4.703125 -1.59375q-1.25 0 -2.109375 0.03125q-0.859375 0.03125 -1.296875 0.046875l0 9.765625q0 1.234375 1.0 1.859375q1.0 0.625 2.78125 0.625q2.90625 0 4.4375 -1.6875q1.546875 -1.703125 1.546875 -5.015625zm28.652351 7.890625l-6.265625 0.4375l-0.296875 -0.28125l0 -2.4375l-0.109375 0q-0.46875 0.484375 -1.0625 1.046875q-0.578125 0.5625 -1.34375 1.0q-0.875 0.53125 -1.703125 0.796875q-0.8125 0.28125 -2.3125 0.28125q-2.5625 0 -3.90625 -1.671875q-1.328125 -1.671875 -1.328125 -4.84375l0 -9.21875q0 -0.703125 -0.265625 -1.1875q-0.265625 -0.484375 -0.7812576 -0.828125q-0.34375 -0.234375 -0.875 -0.34375q-0.53125 -0.109375 -1.109375 -0.140625l0 -1.28125l6.4218826 -0.46875l0.296875 0.28125l0 13.375q0 2.09375 0.9375 3.15625q0.9375 1.046875 2.25 1.046875q1.0625 0 1.90625 -0.328125q0.84375 -0.34375 1.40625 -0.78125q0.53125 -0.421875 0.921875 -0.875q0.40625 -0.453125 0.625 -0.84375l0 -10.921875q0 -0.640625 -0.28125 -1.140625q-0.265625 -0.5 -0.75 -0.859375q-0.359375 -0.234375 -1.0625 -0.28125q-0.6875 -0.046875 -1.546875 -0.078125l0 -1.28125l7.0 -0.46875l0.296875 0.28125l0 15.296875q0 0.65625 0.265625 1.125q0.28125 0.46875 0.765625 0.796875q0.34375 0.21875 0.828125 0.296875q0.5 0.0625 1.078125 0.078125l0 1.265625zm23.289062 0.359375l-9.453125 0l0 -1.296875q0.453125 -0.03125 1.0 -0.0625q0.546875 -0.046875 0.890625 -0.171875q0.546875 -0.171875 0.8125 -0.609375q0.265625 -0.4375 0.265625 -1.140625l0 -9.90625q0 -2.046875 -0.96875 -3.15625q-0.96875 -1.125 -2.359375 -1.125q-1.015625 0 -1.890625 0.328125q-0.859375 0.328125 -1.546875 0.796875q-0.65625 0.484375 -1.015625 0.96875q-0.34375 0.484375 -0.546875 0.828125l0 11.0625q0 0.671875 0.265625 1.109375q0.265625 0.421875 0.8125 0.65625q0.4375 0.1875 0.890625 0.296875q0.453125 0.09375 1.0 0.125l0 1.296875l-9.453125 0l0 -1.296875q0.453125 -0.03125 0.9375 -0.078125q0.5 -0.046875 0.828125 -0.15625q0.546875 -0.171875 0.8125 -0.609375q0.28125 -0.4375 0.28125 -1.140625l0 -22.421875q0 -0.671875 -0.3125 -1.328125q-0.296875 -0.671875 -0.78125 -1.0q-0.359375 -0.25 -1.25 -0.359375q-0.875 -0.109375 -1.421875 -0.140625l0 -1.25l7.125 -0.453125l0.265625 0.296875l0 13.4375l0.078125 0q0.65625 -0.65625 1.171875 -1.140625q0.53125 -0.5 1.390625 -1.046875q0.75 -0.46875 1.75 -0.78125q1.0 -0.3125 2.25 -0.3125q2.578125 0 3.96875 1.625q1.390625 1.625 1.390625 4.703125l0 10.015625q0 0.6875 0.234375 1.109375q0.25 0.40625 0.8125 0.640625q0.453125 0.1875 0.8125 0.28125q0.359375 0.078125 0.953125 0.109375l0 1.296875zm11.390625 0l-9.40625 0l0 -1.296875q0.453125 -0.03125 0.953125 -0.078125q0.515625 -0.046875 0.84375 -0.15625q0.546875 -0.171875 0.8125 -0.609375q0.28125 -0.4375 0.28125 -1.140625l0 -22.3125q0 -0.703125 -0.296875 -1.3125q-0.296875 -0.609375 -0.796875 -0.96875q-0.34375 -0.234375 -1.28125 -0.421875q-0.9375 -0.203125 -1.5 -0.234375l0 -1.25l7.234375 -0.453125l0.28125 0.296875l0 26.421875q0 0.6875 0.25 1.125q0.25 0.4375 0.828125 0.671875q0.421875 0.1875 0.84375 0.296875q0.421875 0.09375 0.953125 0.125l0 1.296875zm19.523438 -4.53125q-1.203125 2.296875 -3.234375 3.671875q-2.03125 1.375 -4.671875 1.375q-2.328125 0 -4.078125 -0.828125q-1.75 -0.828125 -2.875 -2.234375q-1.140625 -1.40625 -1.703125 -3.28125q-0.546875 -1.875 -0.546875 -3.953125q0 -1.875 0.59375 -3.6875q0.59375 -1.8125 1.75 -3.25q1.109375 -1.390625 2.765625 -2.234375q1.65625 -0.859375 3.703125 -0.859375q2.109375 0 3.609375 0.671875q1.5 0.65625 2.4375 1.8125q0.90625 1.09375 1.34375 2.578125q0.4375 1.484375 0.4375 3.21875l0 1.296875l-12.75 0q0 1.890625 0.359375 3.4375q0.359375 1.546875 1.140625 2.71875q0.765625 1.125 1.984375 1.78125q1.234375 0.65625 2.9375 0.65625q1.734375 0 3.0 -0.8125q1.265625 -0.8125 2.4375 -2.921875l1.359375 0.84375zm-4.3125 -7.34375q0 -1.09375 -0.1875 -2.34375q-0.1875 -1.25 -0.59375 -2.09375q-0.453125 -0.890625 -1.234375 -1.453125q-0.78125 -0.578125 -2.015625 -0.578125q-2.046875 0 -3.40625 1.71875q-1.359375 1.703125 -1.46875 4.75l8.90625 0zm21.289062 -4.90625q0 1.0 -0.5 1.78125q-0.484375 0.765625 -1.5 0.765625q-1.09375 0 -1.671875 -0.5625q-0.5625 -0.578125 -0.5625 -1.265625q0 -0.421875 0.0625 -0.765625q0.0625 -0.359375 0.125 -0.71875q-0.921875 0 -2.15625 0.75q-1.21875 0.734375 -2.078125 2.109375l0 11.203125q0 0.6875 0.265625 1.125q0.265625 0.421875 0.828125 0.640625q0.484375 0.1875 1.25 0.296875q0.78125 0.09375 1.34375 0.125l0 1.296875l-10.15625 0l0 -1.296875q0.453125 -0.03125 0.921875 -0.0625q0.484375 -0.046875 0.84375 -0.171875q0.546875 -0.171875 0.796875 -0.609375q0.265625 -0.4375 0.265625 -1.140625l0 -11.890625q0 -0.609375 -0.28125 -1.1875q-0.28125 -0.59375 -0.78125 -0.953125q-0.375 -0.234375 -0.890625 -0.328125q-0.5 -0.109375 -1.09375 -0.15625l0 -1.265625l6.40625 -0.4375l0.28125 0.28125l0 2.71875l0.09375 0q1.21875 -1.59375 2.703125 -2.40625q1.484375 -0.828125 2.703125 -0.828125q1.234375 0 2.0 0.8125q0.78125 0.796875 0.78125 2.140625zm38.78514 16.78125l-7.4531097 0q-2.484375 -3.890625 -4.484375 -6.71875q-2.0 -2.828125 -4.34375 -5.84375l-2.84375 0l0 8.796875q0 0.671875 0.21875 1.203125q0.21875 0.515625 0.921875 0.78125q0.34375 0.140625 1.21875 0.265625q0.890625 0.109375 1.5 0.125l0 1.390625l-11.71875 0l0 -1.390625q0.46875 -0.03125 1.34375 -0.125q0.890625 -0.109375 1.25 -0.265625q0.578125 -0.25 0.84375 -0.734375q0.265625 -0.5 0.265625 -1.25l0 -20.046875q0 -0.6875 -0.203125 -1.203125q-0.1875 -0.53125 -0.90625 -0.8125q-0.484375 -0.171875 -1.265625 -0.3125q-0.78125 -0.15625 -1.328125 -0.1875l0 -1.390625l12.78125 0q1.765625 0 3.296875 0.359375q1.546875 0.359375 2.796875 1.171875q1.21875 0.78125 1.9375 2.046875q0.71875 1.25 0.71875 3.03125q0 1.59375 -0.484375 2.828125q-0.484375 1.234375 -1.4375 2.125q-0.890625 0.84375 -2.125 1.46875q-1.21875 0.609375 -2.703125 1.03125q2.046875 2.71875 3.40625 4.578125q1.359375 1.84375 3.328125 4.5q0.859375 1.171875 1.546875 1.734375q0.703125 0.5625 1.390625 0.90625q0.5 0.25 1.265625 0.390625q0.76560974 0.140625 1.2656097 0.15625l0 1.390625zm-10.26561 -20.671875q0 -2.515625 -1.453125 -3.984375q-1.4375 -1.484375 -4.078125 -1.484375l-3.328125 0l0 11.90625l2.5625 0q2.703125 0 4.5 -1.734375q1.796875 -1.734375 1.796875 -4.703125zm27.941391 16.140625q-1.203125 2.296875 -3.234375 3.671875q-2.03125 1.375 -4.671875 1.375q-2.328125 0 -4.078125 -0.828125q-1.75 -0.828125 -2.875 -2.234375q-1.140625 -1.40625 -1.703125 -3.28125q-0.546875 -1.875 -0.546875 -3.953125q0 -1.875 0.59375 -3.6875q0.59375 -1.8125 1.75 -3.25q1.109375 -1.390625 2.765625 -2.234375q1.65625 -0.859375 3.703125 -0.859375q2.109375 0 3.609375 0.671875q1.5 0.65625 2.4375 1.8125q0.90625 1.09375 1.34375 2.578125q0.4375 1.484375 0.4375 3.21875l0 1.296875l-12.75 0q0 1.890625 0.359375 3.4375q0.359375 1.546875 1.140625 2.71875q0.765625 1.125 1.984375 1.78125q1.234375 0.65625 2.9375 0.65625q1.734375 0 3.0 -0.8125q1.265625 -0.8125 2.4375 -2.921875l1.359375 0.84375zm-4.3125 -7.34375q0 -1.09375 -0.1875 -2.34375q-0.1875 -1.25 -0.59375 -2.09375q-0.453125 -0.890625 -1.234375 -1.453125q-0.78125 -0.578125 -2.015625 -0.578125q-2.046875 0 -3.40625 1.71875q-1.359375 1.703125 -1.46875 4.75l8.90625 0zm24.132812 -5.09375q1.15625 1.359375 1.78125 3.171875q0.640625 1.796875 0.640625 4.125q0 2.28125 -0.765625 4.171875q-0.75 1.890625 -2.0 3.21875q-1.3125 1.34375 -2.921875 2.078125q-1.59375 0.71875 -3.390625 0.71875q-1.734375 0 -2.859375 -0.40625q-1.109375 -0.390625 -1.8125 -0.90625l-0.15625 0l0 5.78125q0 0.703125 0.265625 1.171875q0.28125 0.46875 0.859375 0.6875q0.46875 0.171875 1.328125 0.328125q0.875 0.171875 1.4375 0.1875l0 1.3125l-10.765625 0l0 -1.3125q0.609375 -0.03125 1.171875 -0.09375q0.578125 -0.0625 1.015625 -0.1875q0.59375 -0.203125 0.828125 -0.6875q0.234375 -0.484375 0.234375 -1.15625l0 -20.484375q0 -0.59375 -0.296875 -1.140625q-0.296875 -0.546875 -0.765625 -0.875q-0.34375 -0.234375 -0.96875 -0.359375q-0.625 -0.125 -1.21875 -0.171875l0 -1.265625l6.5625 -0.4375l0.28125 0.234375l0 2.171875l0.15625 0.046875q1.015625 -1.171875 2.515625 -1.953125q1.5 -0.78125 2.984375 -0.78125q1.796875 0 3.296875 0.765625q1.5 0.75 2.5625 2.046875zm-3.171875 13.84375q0.78125 -1.21875 1.140625 -2.8125q0.375 -1.609375 0.375 -3.578125q0 -1.4375 -0.3125 -2.9375q-0.3125 -1.515625 -0.96875 -2.625q-0.671875 -1.140625 -1.75 -1.84375q-1.0625 -0.703125 -2.578125 -0.703125q-1.4375 0 -2.453125 0.640625q-1.015625 0.640625 -1.765625 1.515625l0 11.390625q0.1875 0.515625 0.578125 1.09375q0.40625 0.5625 0.890625 0.96875q0.609375 0.484375 1.3125 0.796875q0.703125 0.296875 1.71875 0.296875q1.09375 0 2.109375 -0.578125q1.015625 -0.578125 1.703125 -1.625zm27.195312 -6.703125q0 2.03125 -0.640625 4.0q-0.640625 1.953125 -1.828125 3.328125q-1.359375 1.5625 -3.140625 2.328125q-1.765625 0.765625 -3.96875 0.765625q-1.84375 0 -3.5 -0.6875q-1.65625 -0.703125 -2.953125 -2.03125q-1.265625 -1.3125 -2.015625 -3.1875q-0.75 -1.890625 -0.75 -4.234375q0 -4.515625 2.625 -7.390625q2.625 -2.875 6.875 -2.875q4.046875 0 6.671875 2.734375q2.625 2.71875 2.625 7.25zm-4.03125 0.046875q0 -1.46875 -0.296875 -3.09375q-0.296875 -1.640625 -0.875 -2.765625q-0.625 -1.21875 -1.640625 -1.953125q-1.015625 -0.734375 -2.484375 -0.734375q-1.5 0 -2.578125 0.75q-1.0625 0.734375 -1.71875 2.03125q-0.625 1.1875 -0.890625 2.71875q-0.25 1.515625 -0.25 2.9375q0 1.875 0.296875 3.46875q0.3125 1.59375 0.984375 2.84375q0.65625 1.25 1.65625 1.96875q1.015625 0.703125 2.5 0.703125q2.4375 0 3.859375 -2.359375q1.4375 -2.359375 1.4375 -6.515625zm21.578125 -7.0q0 1.0 -0.5 1.78125q-0.484375 0.765625 -1.5 0.765625q-1.09375 0 -1.671875 -0.5625q-0.5625 -0.578125 -0.5625 -1.265625q0 -0.421875 0.0625 -0.765625q0.0625 -0.359375 0.125 -0.71875q-0.921875 0 -2.15625 0.75q-1.21875 0.734375 -2.078125 2.109375l0 11.203125q0 0.6875 0.265625 1.125q0.265625 0.421875 0.828125 0.640625q0.484375 0.1875 1.25 0.296875q0.78125 0.09375 1.34375 0.125l0 1.296875l-10.15625 0l0 -1.296875q0.453125 -0.03125 0.921875 -0.0625q0.484375 -0.046875 0.84375 -0.171875q0.546875 -0.171875 0.796875 -0.609375q0.265625 -0.4375 0.265625 -1.140625l0 -11.890625q0 -0.609375 -0.28125 -1.1875q-0.28125 -0.59375 -0.78125 -0.953125q-0.375 -0.234375 -0.890625 -0.328125q-0.5 -0.109375 -1.09375 -0.15625l0 -1.265625l6.40625 -0.4375l0.28125 0.28125l0 2.71875l0.09375 0q1.21875 -1.59375 2.703125 -2.40625q1.484375 -0.828125 2.703125 -0.828125q1.234375 0 2.0 0.8125q0.78125 0.796875 0.78125 2.140625zm13.527344 15.9375q-1.265625 0.53125 -2.40625 0.890625q-1.125 0.359375 -2.765625 0.359375q-2.421875 0 -3.40625 -1.21875q-0.984375 -1.21875 -0.984375 -3.453125l0 -13.046875l-3.484375 0l0 -1.875l3.5625 0l0 -5.984375l3.546875 0l0 5.984375l5.53125 0l0 1.875l-5.484375 0l0 10.765625q0 1.21875 0.078125 2.03125q0.09375 0.796875 0.421875 1.40625q0.3125 0.5625 0.9375 0.859375q0.625 0.296875 1.6875 0.296875q0.484375 0 1.421875 -0.078125q0.953125 -0.09375 1.34375 -0.234375l0 1.421875z" fill-rule="nonzero"></path></g></svg>

